<?xml version="1.0" encoding="utf-8"?>
<svg viewBox="563 79.398 525.54 449" xmlns="http://www.w3.org/2000/svg" xmlns:xlink="http://www.w3.org/1999/xlink">
  <defs>
    <radialGradient id="c" cx="255.66" cy="83.547" r="29.041" gradientUnits="userSpaceOnUse" xlink:href="#a"/>
    <linearGradient id="a">
      <stop stop-color="#e1cc68" offset="0"/>
      <stop stop-color="#e1cc68" offset="0.5455"/>
      <stop stop-color="#897827" offset="1"/>
    </linearGradient>
    <linearGradient id="d" x2="0" y1="431.65" y2="505.12" gradientUnits="userSpaceOnUse" xlink:href="#b"/>
    <linearGradient id="b">
      <stop stop-color="#3f0d11" offset="0"/>
      <stop stop-color="#ce2b37" offset="1"/>
    </linearGradient>
    <linearGradient id="e" x2="0" y1="360.69" y2="262.07" gradientUnits="userSpaceOnUse" xlink:href="#b"/>
    <linearGradient id="f" x1="656.45" x2="995.57" gradientUnits="userSpaceOnUse">
      <stop stop-color="#695c19" offset="0"/>
      <stop stop-color="#e1cd68" offset="0.3099"/>
      <stop stop-color="#e5d37c" offset="0.4125"/>
      <stop stop-color="#a89431" offset="0.5104"/>
      <stop stop-color="#6b5b19" offset="1"/>
    </linearGradient>
    <linearGradient id="g" x1="549.31" x2="654.39" y1="225.5" y2="264.29" gradientUnits="userSpaceOnUse" xlink:href="#a"/>
    <linearGradient id="h" x1="673.67" x2="741.45" y1="236.95" y2="252.23" gradientUnits="userSpaceOnUse" xlink:href="#a"/>
    <linearGradient id="i" x1="787.04" x2="864.34" y1="216.39" y2="217.23" gradientUnits="userSpaceOnUse">
      <stop stop-color="#bda73b" offset="0"/>
      <stop stop-color="#e1cc68" offset="0.5"/>
      <stop stop-color="#bda73b" offset="1"/>
    </linearGradient>
  </defs>
  <g transform="matrix(-1, 0, 0, 1, 1625.400024, 1.8479)" fill="#817022" stroke="#000" stroke-miterlimit="2" stroke-width="2">
    <path d="m903.38 201.89c-40.751 9.8359-77.387-11.613-89.338-34.677l-1.7632-14.694c17.945 19.455 55.947 39.175 86.106 23.804l4.9959 25.567z"/>
    <path d="m901.32 196.02c-29.072 7.017-56.05-1.8884-73.465-15.944"/>
  </g>
  <path d="m929.82 203.74c-40.751 9.8359-77.387-11.613-89.338-34.677l-1.7632-14.694c17.945 19.455 55.947 39.175 86.106 23.804l4.9959 25.567z" fill="#e1cc68"/>
  <path d="m838.73 154.38 1.75 14.688c8.3051 16.028 28.537 31.239 53.781 35.75l8.5312-4.3125-2.0312-16.844c-24.122-0.13706-48.648-14.771-62.031-29.281z" fill="#817022"/>
  <path d="m929.82 203.74c-40.751 9.8359-77.387-11.613-89.338-34.677l-1.7632-14.694c17.945 19.455 55.947 39.175 86.106 23.804l4.9959 25.567z" fill="none" stroke="#000" stroke-miterlimit="2" stroke-width="2"/>
  <path d="m927.76 197.86c-29.072 7.017-56.05-1.8884-73.465-15.944" fill="none" stroke="#000" stroke-miterlimit="2" stroke-width="2"/>
  <path transform="matrix(1.3206, 0, 0, 1.3206, 488.279999, 17.583)" d="m283.7 83.547a28.035 28.035 0 1 1 -56.07 0 28.035 28.035 0 1 1 56.07 0z" fill="url(#c)" stroke="#000" stroke-linecap="round" stroke-linejoin="round" stroke-miterlimit="3.5" stroke-width="1.5144"/>
  <path d="m970.93 474.13c0 20.792-64.959 33.218-145 33.218s-145-14.65-145-33.588c0-19.309 64.959-40.632 145-40.632s145 20.211 145 41.003z" fill="url(#d)" stroke="#000" stroke-width="2.9572"/>
  <path d="m668.78 266.15c-16.461 11.74-31.11 23.481-42.636 35.221l2.966 40.04 35.592 47.455 19.279 22.986h288.44l22.245-34.85 35.221-40.782v-41.894c-14.89-10.412-30.231-20.6-47.085-30.03-13.995-1.6679-26.785-2.5323-37.816-2.2245-12.512-5.2755-25.14-10.522-41.523-14.83-10.752 3.1514-21.572 6.268-30.401 10.381-14.868-2.3288-27.545-5.7532-45.972-6.3027-16.251 1.9155-32.266 4.0668-50.421 4.0782-14.543-2.1206-28.791-4.389-45.231-5.5612l-28.918 17.425c-10.181-0.58374-18.913-1.4573-33.738-1.1122z" fill="url(#e)" fill-rule="evenodd" stroke="#000" stroke-miterlimit="2" stroke-width="2"/>
  <path d="m944.38 173.09c36.486-7.0713 74.977 6.7563 97.506 37.816 21.739 29.971 21.21 53.14 23.357 82.305 1.1122 15.108 9.2686 30.03 9.2686 30.03-10.399 4.2532-22.24 10.478-37.074 21.132l-15.473-2.2112c-3.2354-13.025-9.1029-24.679-16.782-36.346 37.87-70.424-7.1926-103.37-43.006-103.44l-28.362-7.4149 10.566-21.874z" fill="#e1cc68" fill-rule="evenodd"/>
  <path d="m958.1 194.6-18.781 1.8125 22.844 5.9688c35.814 0.0636 80.901 33.014 43.031 103.44 7.679 11.668 13.546 23.319 16.781 36.344l2.0937 0.3125c2.6378-2.7932 4.625-5.0312 4.625-5.0312l-2 0.625c-2.8737-11.107-7.422-21.37-12.25-31.5 29.742-56.281 8.3219-112.58-56.344-111.97z" fill="#c3af52" fill-rule="evenodd"/>
  <path d="m819.48 338.66c-5.4218 28.992-25.805 37.007-40.125 10.5-6.508 21.005-22.541 33.94-40.906 6.5312-2.7699 21.838-19.504 36.995-39.031 9.1562-2.347 24.055-17.731 33.772-33.562 19.406l-8.4062-0.75c8.5702 8.8545 10.763 18.232 11 27.781-3.8655 4.1706-2.1619 10.527 2.625 10.219l6.5625 34.844-1.2812 7.3438c-2.0498 8.8658 1.5559 12.034 4.9375 15.469h1.4375c-1.1807-1.7496-1.7812-3.5662-1.7812-5.4062 4e-5 -19.309 64.962-40.625 145-40.625s144.97 20.208 144.97 41c0 1.7339-0.43789 3.416-1.3125 5.0312h1.125c3.3816-3.4345 7.0498-6.6029 5-15.469l-1.3438-7.3438 6.5625-34.844c4.682-0.77635 6.1678-6.8086 2.625-10.219 0.23651-9.549 2.4299-18.927 11-27.781l-8.375 0.75c-15.831 14.365-31.215 4.6486-33.562-19.406-19.527 27.838-36.293 12.682-39.062-9.1562-18.366 27.408-34.398 14.474-40.906-6.5312-14.32 26.507-34.703 18.492-40.125-10.5l-6.8674-4.3616-6.1952 4.3616z" fill="url(#f)" fill-rule="evenodd" stroke="#000" stroke-width="2"/>
  <path d="m825.95 352.6zc-14.215 24.878-27.93 27.546-45.438 12.719-12.567 17.673-23.504 19.448-39.469 7.4062-8.2543 16.974-21.425 19.933-37.094 9.8438-6.186 16.23-21.263 20.45-38.562 11.312-0.2969-0.15683-0.56034-0.27516-0.84375-0.40625 2.8165 5.7874 3.7519 11.738 3.9062 17.75 14.616-8.7991 57.781-33.812 157-33.812h1.2812c98.807 1e-5 142.04 24.783 156.84 33.688 0.16526-6.0121 1.1245-11.964 3.9688-17.75-0.3553 0.15771-0.68588 0.33231-1.0625 0.53125-17.299 9.138-32.377 4.9179-38.562-11.312-15.669 10.09-28.839 7.1304-37.094-9.8438-15.965 12.041-26.902 10.267-39.469-7.4062-17.504 14.824-31.194 12.146-45.406-12.719z" fill="#6b5b19" fill-rule="evenodd" stroke="#000" stroke-miterlimit="2" stroke-width="2"/>
  <path d="m967.29 481.81c2e-5 -2e-5 8.8881-5.9647 8.8881-12.418-2e-5 -17.24-55.741-43.343-149.98-43.443h-0.53993c-94.233 0.10102-149.98 26.203-149.98 43.443 0 6.4537 8.9296 12.418 8.9296 12.418" fill="none" stroke="#000" stroke-miterlimit="3" stroke-width="2"/>
  <path d="m663.36 382.37c18.411 19.89 34.04 6.0349 35.592-17.61 14.928 23.066 38.46 18.272 38.001-10.937 12.999 24.647 34.518 24.161 42.08-4.2636 14.874 26.259 36.819 17.863 40.782-11.493" fill="none" stroke="#000" stroke-miterlimit="2" stroke-width="2.6581"/>
  <path d="m988.5 382.37c-18.411 19.89-34.04 6.0349-35.592-17.61-14.928 23.066-38.46 18.272-38.001-10.937-12.999 24.647-34.518 24.161-42.08-4.2636-14.874 26.259-36.819 17.863-40.782-11.493" fill="none" stroke="#000" stroke-miterlimit="2" stroke-width="2.6581"/>
  <path d="m986.46 393.87c-17.299 9.138-32.372 4.9227-38.558-11.308-15.669 10.09-28.82 7.1495-37.074-9.8247-15.965 12.041-26.918 10.258-39.484-7.4149-17.654 14.952-31.444 12.117-45.787-13.347" fill="none" stroke="#000" stroke-miterlimit="2" stroke-width="2"/>
  <path d="m984.03 411.37c-14.396-8.6752-57.52-33.974-157.29-33.974h-1.2875c-99.735 0-142.85 25.3-157.24 33.974" fill="none" stroke="#000" stroke-miterlimit="3" stroke-width="2"/>
  <path d="m707.48 173.09c-36.486-7.0713-74.977 6.7563-97.506 37.816-21.739 29.971-21.21 53.14-23.357 82.305-1.1122 15.108-9.2686 30.03-9.2686 30.03 10.399 4.2532 22.239 10.478 37.075 21.132l15.473-2.2112c3.2354-13.025 9.1029-24.679 16.782-36.346-37.87-70.424 7.1926-103.37 43.006-103.44l28.362-7.4149-10.566-21.874z" fill="url(#g)" fill-rule="evenodd" stroke="#000" stroke-miterlimit="3" stroke-width="2"/>
  <path transform="matrix(1.329, 0, 0, 1.329, 260.309998, 113.949997)" d="m266.96 125.39a9.7634 9.7634 0 1 1 -19.527 0 9.7634 9.7634 0 1 1 19.527 0z" fill="#fff" stroke="#000" stroke-miterlimit="3" stroke-width="1.5048"/>
  <path transform="matrix(1.329, 0, 0, 1.329, 261.420013, 87.632004)" d="m265.7 125.39a8.5081 8.5081 0 1 1 -17.016 0 8.5081 8.5081 0 1 1 17.016 0z" fill="#fff" stroke="#000" stroke-miterlimit="3" stroke-width="1.5048"/>
  <path transform="matrix(1.329, 0, 0, 1.329, 268.100006, 62.792)" d="m265.29 125.39a8.0897 8.0897 0 1 1 -16.179 0 8.0897 8.0897 0 1 1 16.179 0z" fill="#fff" stroke="#000" stroke-miterlimit="3" stroke-width="1.5048"/>
  <path transform="matrix(1.329, 0, 0, 1.329, 281.820007, 40.917999)" d="m263.89 125.39a6.6949 6.6949 0 1 1 -13.39 0 6.6949 6.6949 0 1 1 13.39 0z" fill="#fff" stroke="#000" stroke-miterlimit="3" stroke-width="1.5048"/>
  <path transform="matrix(1.329, 0, 0, 1.329, 301.470001, 25.347)" d="m263.89 125.39a6.6949 6.6949 0 1 1 -13.39 0 6.6949 6.6949 0 1 1 13.39 0z" fill="#fff" stroke="#000" stroke-miterlimit="3" stroke-width="1.5048"/>
  <path transform="matrix(1.329, 0, 0, 1.329, 322.230011, 15.336)" d="m262.36 125.39a5.1606 5.1606 0 1 1 -10.321 0 5.1606 5.1606 0 1 1 10.321 0z" fill="#fff" stroke="#000" stroke-miterlimit="3" stroke-width="1.5048"/>
  <path transform="matrix(1.329, 0, 0, 1.329, 342.98999, 11.629)" d="m262.36 125.39a5.1606 5.1606 0 1 1 -10.321 0 5.1606 5.1606 0 1 1 10.321 0z" fill="#fff" stroke="#000" stroke-miterlimit="3" stroke-width="1.5048"/>
  <path d="m693.76 194.59c-64.666-0.61309-86.095 55.684-56.353 111.97-4.828 10.13-9.3609 20.407-12.235 31.513" fill="none" stroke="#000" stroke-miterlimit="3" stroke-width="2"/>
  <path d="m773.49 175.82c2.9749 0 5.375 2.4313 5.375 5.4062s-2.4 5.375-5.375 5.375-5.375-2.4-5.375-5.375 2.4001-5.4062 5.375-5.4062z" fill="#fff" stroke="#000" stroke-miterlimit="3" stroke-width="2"/>
  <path d="m758.49 179.07c3.2994 0 6 2.6694 6 5.9688s-2.7006 5.9688-6 5.9688-5.9688-2.6694-5.9688-5.9688 2.6694-5.9688 5.9688-5.9688z" fill="#fff" stroke="#000" stroke-miterlimit="3" stroke-width="2"/>
  <path d="m742.92 179.66c3.4616 0 6.2812 2.7884 6.2812 6.25s-2.8196 6.2812-6.2812 6.2812-6.2812-2.8196-6.2812-6.2812 2.8196-6.25 6.2812-6.25z" fill="#fff" stroke="#000" stroke-miterlimit="3" stroke-width="2"/>
  <path d="m745.31 182.72c0.20571 0.48609 0.32405 1.0132 0.32405 1.5739 0 2.243-1.8214 4.0644-4.0644 4.0644-0.82661 0-1.5987-0.25136-2.2405-0.67587 0.65024 1.3312 2.0119 2.2498 3.5923 2.2498 2.209 0 3.9996-1.7906 3.9996-3.9996 0-1.3139-0.63207-2.4829-1.611-3.2127z" fill="#37abc8"/>
  <path d="m767.91 166.97c-56.756 31.064-52.412 76.621-9.0833 102.88-20.704 20.19-29.776 38.264-28.733 54.5-16.432-12.717-35.041-23.801-55.426-33.552 6.2316-8.4873 11.071-21.25 11.395-32.751 1.0912-38.641-5.853-89.667 67.389-108.5l14.629 0.16668-0.16985 17.258z" fill="url(#h)" fill-rule="evenodd" stroke="#000" stroke-miterlimit="3" stroke-width="2"/>
  <path d="m763.83 160.11c-74.037 42.357-38.871 94.037-12.605 110.3-12.37 12.563-22.483 27.042-26.138 40.411" fill="none" stroke="#000" stroke-miterlimit="3" stroke-width="2"/>
  <path transform="matrix(1.329, 0, 0, 1.329, 364.119995, 83.554001)" d="m266.96 125.39a9.7634 9.7634 0 1 1 -19.527 0 9.7634 9.7634 0 1 1 19.527 0z" fill="#fff" stroke="#000" stroke-miterlimit="3" stroke-width="1.5048"/>
  <path transform="matrix(1.329, 0, 0, 1.329, 372.649994, 110.059998)" d="m269.47 125.39a12.274 12.274 0 1 1 -24.548 0 12.274 12.274 0 1 1 24.548 0z" fill="#fff" stroke="#000" stroke-miterlimit="3" stroke-width="1.5048"/>
  <path transform="matrix(1.329, 0, 0, 1.329, 359.670013, 59.455002)" d="m265.7 125.39a8.5081 8.5081 0 1 1 -17.016 0 8.5081 8.5081 0 1 1 17.016 0z" fill="#fff" stroke="#000" stroke-miterlimit="3" stroke-width="1.5048"/>
  <path transform="matrix(1.329, 0, 0, 1.329, 362.269989, 36.098)" d="m265.01 125.39a7.8107 7.8107 0 1 1 -15.621 0 7.8107 7.8107 0 1 1 15.621 0z" fill="#fff" stroke="#000" stroke-miterlimit="3" stroke-width="1.5048"/>
  <path transform="matrix(1.329, 0, 0, 1.329, 371.170013, 16.448999)" d="m263.89 125.39a6.6949 6.6949 0 1 1 -13.39 0 6.6949 6.6949 0 1 1 13.39 0z" fill="#fff" stroke="#000" stroke-miterlimit="3" stroke-width="1.5048"/>
  <path transform="matrix(1.329, 0, 0, 1.329, 385.619995, 1.2481)" d="m262.36 125.39a5.1606 5.1606 0 1 1 -10.321 0 5.1606 5.1606 0 1 1 10.321 0z" fill="#fff" stroke="#000" stroke-miterlimit="3" stroke-width="1.5048"/>
  <path transform="matrix(1.329, 0, 0, 1.329, 403.420013, -8.0205)" d="m261.1 125.39a3.9054 3.9054 0 1 1 -7.8107 0 3.9054 3.9054 0 1 1 7.8107 0z" fill="#fff" stroke="#000" stroke-miterlimit="3" stroke-width="1.5048"/>
  <path transform="matrix(1.329, 0, 0, 1.329, 264.019989, 144.910004)" d="m269.47 125.39a12.274 12.274 0 1 1 -24.548 0 12.274 12.274 0 1 1 24.548 0z" fill="#fff" stroke="#000" stroke-miterlimit="3" stroke-width="1.5048"/>
  <path d="m958.1 194.6-11.812 3.625 15.875 4.1562c8.1293 0.01444 16.746 1.7305 24.75 5.1875l4.5625-7.0312c-9.3753-3.9288-20.52-6.0594-33.375-5.9375z" fill="#817022"/>
  <path d="m958.1 194.59c64.666-0.61309 86.095 55.684 56.353 111.97 4.828 10.13 9.3609 20.407 12.235 31.513" fill="none" stroke="#000" stroke-miterlimit="3" stroke-width="2"/>
  <path d="m944.38 173.09c36.486-7.0713 74.977 6.7563 97.506 37.816 21.739 29.971 21.21 53.14 23.357 82.305 1.1122 15.108 9.2686 30.03 9.2686 30.03-10.399 4.2532-22.24 10.478-37.074 21.132l-15.473-2.2112c-3.2354-13.025-9.1029-24.679-16.782-36.346 37.87-70.424-7.1926-103.37-43.006-103.44l-28.362-7.4149 10.566-21.874z" fill="none" stroke="#000" stroke-miterlimit="3" stroke-width="2"/>
  <path transform="matrix(-1.329, 0, 0, 1.329, 1370, 40.917999)" d="m263.89 125.39a6.6949 6.6949 0 1 1 -13.39 0 6.6949 6.6949 0 1 1 13.39 0z" fill="#fff" stroke="#000" stroke-miterlimit="3" stroke-width="1.5048"/>
  <path transform="matrix(-1.329, 0, 0, 1.329, 1383.800049, 62.792)" d="m265.29 125.39a8.0897 8.0897 0 1 1 -16.179 0 8.0897 8.0897 0 1 1 16.179 0z" fill="#fff" stroke="#000" stroke-miterlimit="3" stroke-width="1.5048"/>
  <path d="m878.38 175.82c-2.9749 0-5.375 2.4313-5.375 5.4062s2.4 5.375 5.375 5.375 5.375-2.4 5.375-5.375-2.4-5.4062-5.375-5.4062z" fill="#fff" stroke="#000" stroke-miterlimit="3" stroke-width="2"/>
  <path d="m893.38 179.07c-3.2994 0-6 2.6694-6 5.9688s2.7006 5.9688 6 5.9688 5.9688-2.6694 5.9688-5.9688-2.6694-5.9688-5.9688-5.9688z" fill="#fff" stroke="#000" stroke-miterlimit="3" stroke-width="2"/>
  <path d="m908.94 179.66c-3.4616 0-6.2812 2.7884-6.2812 6.25s2.8196 6.2812 6.2812 6.2812 6.2812-2.8196 6.2812-6.2812-2.8196-6.25-6.2812-6.25z" fill="#fff" stroke="#000" stroke-miterlimit="3" stroke-width="2"/>
  <path d="m883.95 166.97c56.756 31.064 52.412 76.621 9.0833 102.88 20.704 20.19 29.776 38.264 28.733 54.5 16.432-12.717 35.041-23.801 55.426-33.552-6.2316-8.4873-11.071-21.25-11.395-32.751-1.0912-38.641 5.853-89.667-67.389-108.5l-14.629 0.16668 0.16987 17.258z" fill="#e1cc68" fill-rule="evenodd"/>
  <path d="m911.33 182.72c0.20572 0.48609 0.32404 1.0132 0.32406 1.5739 0 2.243-1.8215 4.0644-4.0645 4.0644-0.8266 0-1.5987-0.25136-2.2405-0.67587 0.65025 1.3312 2.0119 2.2498 3.5923 2.2498 2.209 0 3.9996-1.7906 3.9996-3.9996 0-1.3139-0.63207-2.4829-1.611-3.2127z" fill="#37abc8"/>
  <path d="m883.85 157.57 0.09375 9.4062c56.756 31.064 52.422 76.614 9.0938 102.88 19.229 18.751 28.404 35.677 28.781 51 3.2717-5.1748 6.0938-9.6875 6.0938-9.6875l-1.1562-0.34375c-3.6548-13.369-13.755-27.844-26.125-40.406 26.266-16.26 61.443-67.956-12.594-110.31l-4.1875-2.5312z" fill="#c3af52" fill-rule="evenodd"/>
  <path d="m888.03 160.11c74.037 42.357 38.871 94.037 12.605 110.3 12.37 12.563 22.483 27.042 26.138 40.411" fill="none" stroke="#000" stroke-miterlimit="3" stroke-width="2"/>
  <path transform="matrix(-1.329, 0, 0, 1.329, 1287.699951, 83.554001)" d="m266.96 125.39a9.7634 9.7634 0 1 1 -19.527 0 9.7634 9.7634 0 1 1 19.527 0z" fill="#fff" stroke="#000" stroke-miterlimit="3" stroke-width="1.5048"/>
  <path transform="matrix(-1.329, 0, 0, 1.329, 1279.199951, 110.059998)" d="m269.47 125.39a12.274 12.274 0 1 1 -24.548 0 12.274 12.274 0 1 1 24.548 0z" fill="#fff" stroke="#000" stroke-miterlimit="3" stroke-width="1.5048"/>
  <path transform="matrix(-1.329, 0, 0, 1.329, 1292.199951, 59.455002)" d="m265.7 125.39a8.5081 8.5081 0 1 1 -17.016 0 8.5081 8.5081 0 1 1 17.016 0z" fill="#fff" stroke="#000" stroke-miterlimit="3" stroke-width="1.5048"/>
  <path transform="matrix(-1.329, 0, 0, 1.329, 1289.599976, 36.098)" d="m265.01 125.39a7.8107 7.8107 0 1 1 -15.621 0 7.8107 7.8107 0 1 1 15.621 0z" fill="#fff" stroke="#000" stroke-miterlimit="3" stroke-width="1.5048"/>
  <path transform="matrix(-1.329, 0, 0, 1.329, 1280.699951, 16.448999)" d="m263.89 125.39a6.6949 6.6949 0 1 1 -13.39 0 6.6949 6.6949 0 1 1 13.39 0z" fill="#fff" stroke="#000" stroke-miterlimit="3" stroke-width="1.5048"/>
  <path transform="matrix(-1.329, 0, 0, 1.329, 1266.199951, 1.2481)" d="m262.36 125.39a5.1606 5.1606 0 1 1 -10.321 0 5.1606 5.1606 0 1 1 10.321 0z" fill="#fff" stroke="#000" stroke-miterlimit="3" stroke-width="1.5048"/>
  <path transform="matrix(-1.329, 0, 0, 1.329, 1248.400024, -8.0205)" d="m261.1 125.39a3.9054 3.9054 0 1 1 -7.8107 0 3.9054 3.9054 0 1 1 7.8107 0z" fill="#fff" stroke="#000" stroke-miterlimit="3" stroke-width="1.5048"/>
  <path transform="matrix(-1.329, 0, 0, 1.329, 1387.800049, 144.910004)" d="m269.47 125.39a12.274 12.274 0 1 1 -24.548 0 12.274 12.274 0 1 1 24.548 0z" fill="#fff" stroke="#000" stroke-miterlimit="3" stroke-width="1.5048"/>
  <path d="m883.95 166.97c56.756 31.064 52.412 76.621 9.0833 102.88 20.704 20.19 29.776 38.264 28.733 54.5 16.432-12.717 35.041-23.801 55.426-33.552-6.2316-8.4873-11.071-21.25-11.395-32.751-1.0912-38.641 5.853-89.667-67.389-108.5l-14.629 0.16668 0.16987 17.258z" fill="none" stroke="#000" stroke-miterlimit="3" stroke-width="2"/>
  <path d="m775.5 178.5c0.17368 0.41037 0.27357 0.85536 0.27358 1.3288 0 1.8936-1.5377 3.4314-3.4314 3.4314-0.69785 0-1.3497-0.21221-1.8916-0.57059 0.54898 1.1238 1.6985 1.8994 3.0328 1.8994 1.865 0 3.3767-1.5117 3.3767-3.3767 0-1.1093-0.53362-2.0962-1.36-2.7123z" fill="#37abc8"/>
  <path d="m880.39 178.5c0.17368 0.41037 0.27358 0.85536 0.27358 1.3288 0 1.8936-1.5378 3.4314-3.4314 3.4314-0.69785 0-1.3497-0.21221-1.8916-0.57059 0.54897 1.1238 1.6985 1.8994 3.0328 1.8994 1.865 0 3.3767-1.5117 3.3767-3.3767 0-1.1093-0.53362-2.0962-1.36-2.7123z" fill="#37abc8"/>
  <path d="m758.04 141.44c-4.0234 1.2801-3.036 5.4653-3.7301 7.7872 1.1793 3.3611 3.6643 12.09 3.6643 12.09-0.34535-3.5857 1.4586-7.8005 2.7846-5.4081 12.345 14.565 17.139 33.755 23.156 51.5 11.264 37.913 19.277 76.753 26.281 115.72-3.3695 4.3151 9.4692 2.5284 12.938 2.875 6.7446-0.64307 14.042 1.5086 20.312-1.5312-3.838-3.4196 0.90108-10.198 0.68711-15.014 8.9864-45.182 17.765-90.866 35.063-133.64 3.6349-7.4048 7.1386-16.576 13.875-21.25 1.075 1.7777 1.1829 3.6375 1.2351 6.8417 1.5722-3.7659 2.8833-12.21 2.8833-12.21-0.58982-3.2848-2.3805-9.8834-6.3927-6.9756-26.854 13.395-57.91 22.676-87.819 15.282-15.448-3.4024-30.134-9.4275-44.312-16.25l-0.625 0.1875z" fill="url(#i)"/>
  <path transform="matrix(1.329, 0, 0, 1.329, 484.100006, 13.668)" d="m269.47 125.39a12.274 12.274 0 1 1 -24.548 0 12.274 12.274 0 1 1 24.548 0z" fill="#fff" stroke="#000" stroke-miterlimit="3" stroke-width="1.5048"/>
  <path d="m833.99 169.48c0.69434 1.6407 1.0937 3.4198 1.0938 5.3125 0 7.5708-6.1479 13.719-13.719 13.719-2.79 0-5.396-0.84843-7.5625-2.2812 2.1948 4.4931 6.7907 7.5938 12.125 7.5938 7.4561-1e-5 13.5-6.0439 13.5-13.5 1e-5 -4.435-2.1334-8.3806-5.4375-10.844z" fill="#37abc8"/>
  <path transform="matrix(1.329, 0, 0, 1.329, 484.100006, 40.547001)" d="m266.96 125.39a9.7634 9.7634 0 1 1 -19.527 0 9.7634 9.7634 0 1 1 19.527 0z" fill="#fff" stroke="#000" stroke-miterlimit="3" stroke-width="1.5048"/>
  <path transform="matrix(1.329, 0, 0, 1.329, 484.100006, 64.275002)" d="m265.7 125.39a8.5081 8.5081 0 1 1 -17.016 0 8.5081 8.5081 0 1 1 17.016 0z" fill="#fff" stroke="#000" stroke-miterlimit="3" stroke-width="1.5048"/>
  <path transform="matrix(1.329, 0, 0, 1.329, 484.100006, 84.666)" d="m263.89 125.39a6.6949 6.6949 0 1 1 -13.39 0 6.6949 6.6949 0 1 1 13.39 0z" fill="#fff" stroke="#000" stroke-miterlimit="3" stroke-width="1.5048"/>
  <path transform="matrix(1.329, 0, 0, 1.329, 484.100006, 100.610001)" d="m262.36 125.39a5.1606 5.1606 0 1 1 -10.321 0 5.1606 5.1606 0 1 1 10.321 0z" fill="#fff" stroke="#000" stroke-miterlimit="3" stroke-width="1.5048"/>
  <path transform="matrix(1.329, 0, 0, 1.329, 484.100006, 115.07)" d="m261.1 125.39a3.9054 3.9054 0 1 1 -7.8107 0 3.9054 3.9054 0 1 1 7.8107 0z" fill="#fff" stroke="#000" stroke-miterlimit="3" stroke-width="1.5048"/>
  <g transform="matrix(1.329, 0, 0, 1.329, 486, 20.341)" fill="none" stroke="#000" stroke-miterlimit="3" stroke-width="1.5048">
    <path d="m309.81 97.634s-1.3938-7.7609-4.4633-5.7186c-21.851 14.539-36.961 106.7-40.309 126.09"/>
    <path d="m201.72 97.634s1.3938-7.7609 4.4633-5.7186c21.851 14.539 36.961 106.7 40.309 126.09"/>
    <path d="m305.5 91.844s-25.945 13.875-49.656 13.875h-0.15625c-23.712 0-49.656-13.875-49.656-13.875"/>
    <g transform="translate(.03275)">
      <path d="m204.79 106.56s-1.3835-8.1422 1.3948-5.7186c17.946 15.655 35.009 108.37 38.356 127.76"/>
      <path d="m306.68 106.56s1.3835-8.1422-1.3948-5.7186c-17.946 15.655-35.009 108.37-38.356 127.76"/>
    </g>
  </g>
  <path d="m810.73 285.35c-1.1562 0.055-2.3507 0.38213-3.625 1.125-3.3775 1.9689-3.1542 5.5447-1.6562 9.625 1.5846 4.3161 7.0474 7.2544 7.5625 10.812 0.43659 3.0158-0.99436 4.7251-1.9688 5.125-3.8992 1.6002-7.8479-3.0949-12-2.25-7.7546 1.578-1.7529 11.998 0.375 18.781 2.1617 6.8911-2.0393 16.054 5.9062 17.344 2.547 0.41328 5.566-1.2829 8.2812-5.3125 1.0296-1.528 3.5886-1.9886 5.9375-2-5.4218 28.992-25.867 37.07-40.188 10.562-6.508 21.005-22.541 33.94-40.906 6.5312-2.7699 21.838-19.504 36.995-39.031 9.1562-2.347 24.055-18.018 34.045-33.562 19.406-2.2836-2.1505-6.1314-5.8483-5.3438-8.3125 1.655-5.178 13.895 5.3058 16.75-7.625 1.3155-5.9576-4.0248-8.536-10.844-15.875-6.2255-6.7002-13.668-23.902-20.875-21.156-8.8104 3.3559-0.17816 19.708-5.5938 15.875-11.859-8.3942-21.484-16.75-38.188-16.75-13.842 0-20 7.8786-20 13.812 0 8.4706 8.8766 7.2199 10.594 2.0625 4.564-13.708 19.28-1.9796 30.25 12.906 4.2168 5.7219 14.568 14.613 18.812 17.656 3.8155 2.736 12.433 4.3425 16.75 7.9062 2.5413 2.0977 4.7732 5.6459 6.375 8.7188 0.28341 0.13109 0.54685 0.24942 0.84375 0.40625 17.299 9.138 32.377 4.9179 38.562-11.312 15.669 10.09 28.839 7.1304 37.094-9.8438 15.965 12.041 26.902 10.267 39.469-7.4062 17.507 14.827 31.222 12.159 45.438-12.719 14.212 24.865 27.902 27.543 45.406 12.719 12.567 17.673 23.504 19.448 39.469 7.4062 8.2543 16.974 21.425 19.933 37.094 9.8438 6.1859 16.23 21.263 20.45 38.562 11.312 0.36333-0.19192 0.6901-0.3467 1.0312-0.5 1.5168-3.17 3.638-5.9614 5.9062-8.625 5.0987-3.6259 11.503-4.9457 17.031-7.9062 4.244-3.0433 14.596-11.934 18.812-17.656 10.97-14.886 25.686-26.614 30.25-12.906 1.7171 5.1574 10.594 6.408 10.594-2.0625 0-5.9339-6.1578-13.812-20-13.812-16.703-1e-5 -26.328 8.3558-38.187 16.75-5.4156 3.8332 3.2166-12.519-5.5938-15.875-7.2073-2.7453-14.65 14.456-20.875 21.156-6.819 7.339-12.159 9.9174-10.844 15.875 2.8553 12.931 14.996 2.4748 16.75 7.625 0.93696 2.7517-2.4642 5.788-5.1562 8.3125-15.581 14.612-31.215 4.6486-33.562-19.406-19.527 27.838-36.293 12.682-39.062-9.1562-18.366 27.408-34.398 14.474-40.906-6.5312-14.32 26.507-34.859 18.398-40.281-10.594 2.3697-0.05441 4.8467 0.31971 6 2.0312 2.7153 4.0296 5.7656 5.7258 8.3125 5.3125 7.9456-1.2893 3.7133-10.453 5.875-17.344 2.1279-6.7835 8.1609-17.203 0.40625-18.781-4.1521-0.84489-8.1008 3.8502-12 2.25-0.97438-0.39987-2.4054-2.1092-1.9688-5.125 0.5151-3.558 5.978-6.4964 7.5625-10.812 1.498-4.0803 1.69-7.6561-1.6875-9.625-6.7963-3.962-11.436 3.6776-18.875 3.5938-6.0444 0.06813-10.271-4.9571-15.281-4.7188z" fill="#e1cc68" fill-rule="evenodd" stroke="#000" stroke-miterlimit="2" stroke-width="2"/>
  <path transform="matrix(1.234, 0, 0, 1.2395, 509.049988, 36.429001)" d="m263.05 229.79a6.2067 10.67 0 1 1 -12.413 0 6.2067 10.67 0 1 1 12.413 0z" fill="#fff" stroke="#000" stroke-miterlimit="2" stroke-width="1.6171"/>
  <path d="m665.4 393.87c17.299 9.138 32.372 4.9227 38.558-11.308 15.669 10.09 28.82 7.1495 37.074-9.8247 15.965 12.041 26.918 10.258 39.484-7.4149 17.654 14.952 31.444 12.117 45.787-13.347" fill="none" stroke="#000" stroke-miterlimit="2" stroke-width="2"/>
  <path d="m981.37 421.38c-14.396-8.6752-54.862-33.974-154.63-33.974h-1.2875c-99.735 0-140.19 25.3-154.59 33.974" fill="none" stroke="#000" stroke-miterlimit="3" stroke-width="2"/>
  <path d="m958.37 325.75-3.1246-1.1368-14.79-5.3585 5.3581-14.831 1.1368-3.1246-3.1246-1.1368-15.707-5.7246-3.1246-1.1368-1.1368 3.1246-5.3997 14.832-14.79-5.3585-3.1246-1.1368-1.1368 3.1246-5.6834 15.665-1.1368 3.1246 3.1246 1.1368 14.79 5.3585-5.3581 14.831-1.1368 3.1246 3.1246 1.1368 15.706 5.7246 3.1246 1.1367 1.1367-3.1246 5.3997-14.832 14.79 5.3585 3.1246 1.1368 1.1368-3.1246 5.6834-15.665 1.1368-3.1246z" fill="#baa035" fill-rule="evenodd" stroke="#000" stroke-linecap="round" stroke-width="2"/>
  <path d="m954.11 327.73-17.914-6.4952 6.4949-17.956-15.706-5.7246-6.5364 17.956-17.914-6.4952-5.6834 15.665 17.914 6.4952-6.4949 17.956 15.706 5.7246 6.5364-17.956 17.914 6.4952 5.6834-15.665z" fill="#ce2b37" fill-rule="evenodd" stroke="#000" stroke-linecap="round" stroke-width="1.329"/>
  <path d="m929.17 302.31 8.7635 3.198-5.2332 14.453-1.2875 3.4888 3.5303 1.2875 14.412 5.1916-3.1565 8.6804-14.412-5.1916-3.4888-1.2875-1.2875 3.4888-5.2332 14.453-8.7634-3.1565 5.2332-14.453 1.2875-3.5303-3.4888-1.246-14.412-5.2332 3.115-8.6389 14.412 5.1916 3.4888 1.2875 1.2875-3.4888 5.2332-14.495z" fill="#fff" fill-rule="evenodd" stroke="#000" stroke-linecap="round" stroke-width="1.329"/>
  <path d="m693.49 325.75 3.1246-1.1368 14.79-5.3585-5.3582-14.831-1.1368-3.1246 3.1246-1.1368 15.706-5.7246 3.1246-1.1368 1.1368 3.1246 5.3996 14.832 14.79-5.3585 3.1246-1.1368 1.1368 3.1246 5.6834 15.665 1.1368 3.1246-3.1246 1.1368-14.79 5.3585 5.3581 14.831 1.1368 3.1246-3.1246 1.1368-15.706 5.7246-3.1246 1.1367-1.1367-3.1246-5.3997-14.832-14.79 5.3585-3.1246 1.1368-1.1368-3.1246-5.6834-15.665-1.1368-3.1246z" fill="#baa035" fill-rule="evenodd" stroke="#000" stroke-linecap="round" stroke-width="2"/>
  <path d="m697.76 327.73 17.914-6.4952-6.4949-17.956 15.706-5.7246 6.5364 17.956 17.914-6.4952 5.6834 15.665-17.914 6.4952 6.4949 17.956-15.706 5.7246-6.5364-17.956-17.914 6.4952-5.6834-15.665z" fill="#ce2b37" fill-rule="evenodd" stroke="#000" stroke-linecap="round" stroke-width="1.329"/>
  <path d="m722.69 302.31-8.7635 3.198 5.2332 14.453 1.2875 3.4888-3.5303 1.2875-14.412 5.1916 3.1565 8.6804 14.412-5.1916 3.4888-1.2875 1.2875 3.4888 5.2332 14.453 8.7635-3.1565-5.2332-14.453-1.2875-3.5303 3.4888-1.246 14.412-5.2332-3.115-8.6389-14.412 5.1916-3.4888 1.2875-1.2875-3.4888-5.2332-14.495z" fill="#fff" fill-rule="evenodd" stroke="#000" stroke-linecap="round" stroke-width="1.329"/>
  <path transform="matrix(0.85314, 0.52168, -0.85314, 0.52168, 0, 0)" d="m858-110.19h31.64v31.64h-31.64z" fill="#e1ce6b" stroke="#000" stroke-miterlimit="2" stroke-width="2.1198"/>
  <path transform="matrix(0.85424, 0.51988, -0.85424, 0.51988, 0, 0)" d="m863.34-103.61h22.421v22.421h-22.421z" fill="#ce2b37" stroke="#000" stroke-miterlimit="2" stroke-width="1.0611"/>
  <path d="m671.82 424.85 26.651 4.5109-21.111 28.032-2.8546-14.3-2.6849-18.243z" fill="#e1ce6b" stroke="#000" stroke-miterlimit="2" stroke-width="2"/>
  <path d="m671.96 429.6 18.694 3.1033-14.385 18.542-9.2866-9.1233 4.9773-12.522z" fill="#ce2b37" stroke="#000" stroke-miterlimit="2"/>
  <path d="m980.37 424.87-26.672 4.3806 20.974 28.135 2.9244-14.286 2.774-18.23z" fill="#e1ce6b" stroke="#000" stroke-miterlimit="2" stroke-width="2"/>
  <path d="m980.21 429.62-18.709 3.012 14.294 18.612 9.3311-9.0778-4.916-12.546z" fill="#ce2b37" stroke="#000" stroke-miterlimit="2"/>
  <path transform="matrix(1.4091, -0.26175, 0.2614, 1.411, 306.769989, 72.449997)" d="m268.51 290.6a12.502 8.7448 0 1 1 -25.003 0 12.502 8.7448 0 1 1 25.003 0z" fill="#e1ce6b" stroke="#000" stroke-miterlimit="2" stroke-width="1.3946"/>
  <path transform="matrix(1.4087, -0.26425, 0.26389, 1.4106, 306.160004, 73.223999)" d="m264.45 290.6a8.4384 5.2304 0 1 1 -16.877 0 8.4384 5.2304 0 1 1 16.877 0z" fill="#808000" stroke="#000" stroke-miterlimit="2" stroke-width=".92673"/>
  <path transform="matrix(-1.4091, -0.26175, -0.2614, 1.411, 1345.300049, 72.449997)" d="m268.51 290.6a12.502 8.7448 0 1 1 -25.003 0 12.502 8.7448 0 1 1 25.003 0z" fill="#e1ce6b" stroke="#000" stroke-miterlimit="2" stroke-width="1.3946"/>
  <path transform="matrix(-1.4087, -0.26425, -0.26389, 1.4106, 1345.900024, 73.223999)" d="m264.45 290.6a8.4384 5.2304 0 1 1 -16.877 0 8.4384 5.2304 0 1 1 16.877 0z" fill="#808000" stroke="#000" stroke-miterlimit="2" stroke-width=".92673"/>
  <path d="m778.41 393.29c-2.3108 0-4.1875 1.8767-4.1875 4.1875s1.8767 4.1875 4.1875 4.1875 4.1875-1.8767 4.1875-4.1875-1.8767-4.1875-4.1875-4.1875zm1.4375 11c-2.3108 0-4.1875 1.8767-4.1875 4.1875s1.8767 4.1875 4.1875 4.1875 4.1875-1.8767 4.1875-4.1875-1.8767-4.1875-4.1875-4.1875zm1.1875 11.25c-2.3108 0-4.1875 1.8767-4.1875 4.1875s1.8767 4.1875 4.1875 4.1875 4.1875-1.8767 4.1875-4.1875-1.8767-4.1875-4.1875-4.1875z" fill="#e1ce6b" stroke="#000" stroke-miterlimit="2" stroke-width="2"/>
  <path d="m873.6 393.29c-2.3108 0-4.1875 1.8767-4.1875 4.1875s1.8767 4.1875 4.1875 4.1875 4.1875-1.8767 4.1875-4.1875-1.8767-4.1875-4.1875-4.1875zm-1.4375 11c-2.3108 0-4.1875 1.8767-4.1875 4.1875s1.8767 4.1875 4.1875 4.1875 4.1875-1.8767 4.1875-4.1875-1.8767-4.1875-4.1875-4.1875zm-1.1875 11.25c-2.3108 1e-5 -4.1875 1.8767-4.1875 4.1875s1.8767 4.1875 4.1875 4.1875 4.1875-1.8767 4.1875-4.1875-1.8767-4.1875-4.1875-4.1875z" fill="#e1ce6b" stroke="#000" stroke-miterlimit="2" stroke-width="2"/>
  <path d="m705.95 408.75c-0.27797-0.00788-0.55924 0.01259-0.84375 0.0625-2.276 0.39929-3.8055 2.5677-3.4062 4.8438s2.5677 3.8056 4.8438 3.4062 3.8055-2.5677 3.4062-4.8438c-0.34938-1.9915-2.0542-3.4136-4-3.4688zm3.3125 10.594c-0.27797-0.00788-0.55925 0.01259-0.84375 0.0625-2.276 0.39929-3.8056 2.5677-3.4062 4.8438s2.5677 3.8055 4.8438 3.4062 3.8055-2.5989 3.4062-4.875c-0.34938-1.9915-2.0542-3.3823-4-3.4375zm3.125 10.844c-0.27797-0.00788-0.55924 0.01259-0.84375 0.0625-2.276 0.39929-3.8055 2.5677-3.4062 4.8438s2.5677 3.8055 4.8438 3.4062 3.8056-2.5677 3.4062-4.8438c-0.34938-1.9915-2.0542-3.4136-4-3.4688z" fill="#e1ce6b" stroke="#000" stroke-miterlimit="2" stroke-width="2"/>
  <path d="m946.07 408.75c-1.9458 0.05516-3.6506 1.4772-4 3.4688-0.39932 2.276 1.1302 4.4445 3.4062 4.8438s4.4445-1.1302 4.8438-3.4062-1.1302-4.4445-3.4062-4.8438c-0.2845-0.04991-0.56577-0.07038-0.84375-0.0625zm-3.3125 10.594c-1.9458 0.05517-3.6506 1.446-4 3.4375-0.39928 2.2761 1.1302 4.4757 3.4062 4.875s4.4445-1.1302 4.8438-3.4062-1.1302-4.4445-3.4062-4.8438c-0.2845-0.04991-0.56577-0.07038-0.84375-0.0625zm-3.125 10.844c-1.9458 0.05517-3.6506 1.4772-4 3.4688-0.3993 2.276 1.1302 4.4445 3.4062 4.8438s4.4445-1.1302 4.8438-3.4062-1.1302-4.4445-3.4062-4.8438c-0.2845-0.04991-0.56577-0.07038-0.84375-0.0625z" fill="#e1ce6b" stroke="#000" stroke-miterlimit="2" stroke-width="2"/>
  <path d="m810.73 285.35c-1.1562 0.055-2.3507 0.38213-3.625 1.125-2.7713 1.6155-3.1047 4.3298-2.3125 7.5l0.125 0.03125c4.4081-8.2448 14.368 3.625 21.188 3.625 6.8018 0 16.7-11.807 21.125-3.6875 0.77497-3.1573 0.41888-5.8583-2.3438-7.4688-6.7963-3.962-11.436 3.6776-18.875 3.5938-6.0444 0.06813-10.271-4.9571-15.281-4.7188z" fill="#9b8726" fill-rule="evenodd" stroke="#000" stroke-miterlimit="2" stroke-width="2"/>
  <path d="m797.8 310.16c-5.8178 2.4265-0.3769 12.025 1.625 18.406 2.1617 6.8911-2.0393 16.054 5.9062 17.344 0.50184 0.08143 1.0298 0.0528 1.5625-0.03125l-0.125-0.21875c-6.7156-1.5073 1.9523-7.482-1.0625-18.469-3.0195-11.004-12.939-8.1059-8.5312-16.188l0.625-0.84375z" fill="#9b8726" stroke="#000" stroke-miterlimit="2" stroke-width="2"/>
  <path d="m854.22 310.16c5.8178 2.4265 0.37689 12.025-1.625 18.406-2.1617 6.8911 2.0393 16.054-5.9062 17.344-0.50185 0.08143-1.0298 0.0528-1.5625-0.03125l0.125-0.21875c6.7156-1.5073-1.9523-7.482 1.0625-18.469 3.0195-11.004 12.939-8.1059 8.5312-16.188l-0.625-0.84375z" fill="#9b8726" stroke="#000" stroke-miterlimit="2" stroke-width="2"/>
  <path d="m676.27 451.25-9.2866-9.1233 4.9773-12.522" fill="none" stroke="#000" stroke-miterlimit="2" stroke-width="2"/>
  <path d="m975.79 451.24 9.3311-9.0778-4.916-12.546" fill="none" stroke="#000" stroke-miterlimit="2" stroke-width="2"/>
  <path d="m595.28 341.28c2.7945-1.5321 2.4984-3.7915 17.926-2.351" fill="none" stroke="#000" stroke-miterlimit="3" stroke-width="2"/>
  <path transform="matrix(0.76105, -0.9714, 0.97575, 0.76445, 218.259995, 445.350006)" d="m263.05 229.79a6.2067 10.67 0 1 1 -12.413 0 6.2067 10.67 0 1 1 12.413 0z" fill="#fff" stroke="#000" stroke-miterlimit="2" stroke-width="1.6171"/>
  <path d="m648.44 331.19c6.3234 8.7147 4.383 20.286 9.4375 26.25 4.7204 5.5694 16.565 4.4321 19.031 12.188 0.12965-0.41581 0.26955-0.83494 0.375-1.3125 1.3155-5.9576-4.056-8.536-10.875-15.875-5.394-5.8054-11.694-19.482-17.969-21.25z" fill="#9b8726" stroke="#000" stroke-miterlimit="3" stroke-width="2"/>
  <path transform="matrix(-0.76105, -0.9714, -0.97575, 0.76445, 1433.599976, 445.350006)" d="m263.05 229.79a6.2067 10.67 0 1 1 -12.413 0 6.2067 10.67 0 1 1 12.413 0z" fill="#fff" stroke="#000" stroke-miterlimit="2" stroke-width="1.6171"/>
  <path d="m1003.4 331.19c-6.3233 8.7147-4.383 20.286-9.4375 26.25-4.7204 5.5694-16.565 4.4321-19.031 12.188-0.12965-0.41581-0.26955-0.83494-0.375-1.3125-1.3155-5.9576 4.056-8.536 10.875-15.875 5.394-5.8054 11.694-19.482 17.969-21.25z" fill="#9b8726" stroke="#000" stroke-miterlimit="3" stroke-width="2"/>
  <path d="m945.45 265.88c0.69434 1.6407 1.0937 3.4198 1.0938 5.3125 0 7.5708-6.1479 13.719-13.719 13.719-2.79 0-5.396-0.84843-7.5625-2.2812 2.1948 4.4931 6.7907 7.5938 12.125 7.5938 7.4561-1e-5 13.5-6.0439 13.5-13.5 1e-5 -4.435-2.1334-8.3806-5.4375-10.844z" fill="#37abc8"/>
  <path d="m951.99 242.04c0.52345 1.2369 0.82456 2.5781 0.82456 4.005 0 5.7075-4.6348 10.342-10.342 10.342-2.1034 0-4.068-0.63962-5.7013-1.7198 1.6546 3.3873 5.1194 5.7248 9.1408 5.7248 5.621 0 10.177-4.5564 10.177-10.177 1e-5 -3.3434-1.6084-6.318-4.0992-8.1749z" fill="#37abc8"/>
  <path d="m955.42 219.31c0.43534 1.0287 0.68576 2.1441 0.68576 3.3308 0 4.7468-3.8546 8.6014-8.6014 8.6014-1.7493 0-3.3832-0.53195-4.7415-1.4303 1.3761 2.8171 4.2576 4.7611 7.6021 4.7611 4.6748-1e-5 8.4642-3.7894 8.4642-8.4642 0-2.7806-1.3376-5.2545-3.4092-6.7988z" fill="#37abc8"/>
  <path d="m952.36 196.58c0.39528 0.93402 0.62265 1.9468 0.62266 3.0243 0 4.31-3.5 7.8099-7.8099 7.8099-1.5883 0-3.0719-0.483-4.3052-1.2987 1.2495 2.5579 3.8659 4.323 6.9026 4.323 4.2447-1e-5 7.6854-3.4407 7.6854-7.6854 0-2.5248-1.2146-4.771-3.0955-6.1732z" fill="#37abc8"/>
  <path d="m942.76 177.87c0.33486 0.79124 0.52747 1.6492 0.52747 2.562 0 3.6511-2.9649 6.616-6.616 6.616-1.3455 0-2.6023-0.40917-3.6471-1.1002 1.0585 2.1668 3.2749 3.6622 5.8474 3.6622 3.5958 0 6.5105-2.9147 6.5105-6.5106 2e-5 -2.1388-1.0289-4.0417-2.6223-5.2295z" fill="#37abc8"/>
  <path d="m927.16 164.21c0.23665 0.55922 0.37279 1.1656 0.37279 1.8107 0 2.5805-2.0955 4.676-4.676 4.676-0.95097 0-1.8392-0.28918-2.5776-0.77755 0.74807 1.5314 2.3146 2.5883 4.1327 2.5883 2.5414 0 4.6014-2.06 4.6014-4.6014 0-1.5116-0.72717-2.8565-1.8533-3.696z" fill="#37abc8"/>
  <path d="m908.44 156.17c0.15735 0.37182 0.24786 0.775 0.24786 1.2039 0 1.7157-1.3933 3.109-3.109 3.109-0.63227 0-1.2229-0.19228-1.7138-0.51699 0.4974 1.0182 1.5389 1.7209 2.7478 1.7209 1.6897 0 3.0594-1.3697 3.0594-3.0594 0-1.0051-0.48348-1.8992-1.2323-2.4574z" fill="#37abc8"/>
  <path d="m722.54 265.88c0.69434 1.6407 1.0937 3.4198 1.0938 5.3125 0 7.5708-6.1479 13.719-13.719 13.719-2.79 0-5.396-0.84843-7.5625-2.2812 2.1948 4.4931 6.7907 7.5938 12.125 7.5938 7.4561-1e-5 13.5-6.0439 13.5-13.5 2e-5 -4.435-2.1334-8.3806-5.4375-10.844z" fill="#37abc8"/>
  <path d="m712.02 242.04c0.52344 1.2369 0.82454 2.5781 0.82455 4.005 0 5.7075-4.6348 10.342-10.342 10.342-2.1034 0-4.068-0.63962-5.7012-1.7198 1.6546 3.3873 5.1194 5.7248 9.1408 5.7248 5.6211 0 10.177-4.5564 10.177-10.177 1e-5 -3.3434-1.6084-6.318-4.0992-8.1749z" fill="#37abc8"/>
  <path d="m706.55 219.31c0.43534 1.0287 0.68576 2.1441 0.68576 3.3308 0 4.7468-3.8546 8.6014-8.6014 8.6014-1.7493 0-3.3832-0.53195-4.7415-1.4303 1.3761 2.8171 4.2576 4.7611 7.6021 4.7611 4.6748-1e-5 8.4642-3.7894 8.4642-8.4642 0-2.7806-1.3376-5.2545-3.4092-6.7988z" fill="#37abc8"/>
  <path d="m708.68 196.58c0.39528 0.93402 0.62265 1.9468 0.62266 3.0243 0 4.31-3.5 7.8099-7.8099 7.8099-1.5883 0-3.0719-0.483-4.3052-1.2987 1.2495 2.5579 3.8659 4.323 6.9026 4.323 4.2447-1e-5 7.6854-3.4407 7.6854-7.6854 0-2.5248-1.2146-4.771-3.0955-6.1732z" fill="#37abc8"/>
  <path d="m716.88 177.87c0.33486 0.79124 0.52747 1.6492 0.52747 2.562 0 3.6511-2.9649 6.616-6.616 6.616-1.3455 0-2.6023-0.40917-3.6471-1.1002 1.0585 2.1668 3.2749 3.6622 5.8474 3.6622 3.5958 0 6.5105-2.9147 6.5105-6.5106 2e-5 -2.1388-1.0289-4.0417-2.6223-5.2295z" fill="#37abc8"/>
  <path d="m730.2 164.21c0.23667 0.55922 0.37279 1.1656 0.3728 1.8107 0 2.5805-2.0955 4.676-4.676 4.676-0.95097 0-1.8392-0.28918-2.5776-0.77755 0.74808 1.5314 2.3146 2.5883 4.1327 2.5883 2.5414 0 4.6014-2.06 4.6014-4.6014 0-1.5116-0.72717-2.8565-1.8533-3.696z" fill="#37abc8"/>
  <path d="m747.07 156.17c0.15735 0.37182 0.24786 0.775 0.24786 1.2039 0 1.7157-1.3933 3.109-3.109 3.109-0.63228 0-1.2229-0.19228-1.7138-0.51699 0.49739 1.0182 1.5389 1.7209 2.7478 1.7209 1.6897 0 3.0594-1.3697 3.0594-3.0594 0-1.0051-0.48349-1.8992-1.2323-2.4574z" fill="#37abc8"/>
  <path d="m832.02 199.01c0.52442 1.2392 0.82607 2.5829 0.82608 4.0124 0 5.718-4.6434 10.361-10.361 10.361-2.1072 0-4.0755-0.64079-5.7118-1.723 1.6577 3.3935 5.1288 5.7354 9.1577 5.7354 5.6314-1e-5 10.196-4.5648 10.196-10.196 0-3.3496-1.6113-6.3297-4.1068-8.19z" fill="#37abc8"/>
  <path d="m831.1 223.98c0.44512 1.0518 0.70117 2.1923 0.70117 3.4057 0 4.8534-3.9412 8.7946-8.7946 8.7946-1.7886 0-3.4592-0.5439-4.8481-1.4624 1.407 2.8804 4.3533 4.8681 7.7729 4.8681 4.7799 0 8.6544-3.8745 8.6544-8.6544 0-2.8431-1.3677-5.3725-3.4858-6.9516z" fill="#37abc8"/>
  <path d="m829.61 246.37c0.31674 0.74842 0.49892 1.56 0.49893 2.4234 0 3.4535-2.8045 6.258-6.258 6.258-1.2727 0-2.4615-0.38702-3.4497-1.0406 1.0012 2.0496 3.0976 3.464 5.531 3.464 3.4012 0 6.1582-2.757 6.1582-6.1582 0-2.023-0.9732-3.8229-2.4804-4.9465z" fill="#37abc8"/>
  <path d="m828.56 263.73c0.22611 0.53427 0.35617 1.1136 0.35617 1.73 0 2.4654-2.002 4.4674-4.4674 4.4674-0.90854 0-1.7572-0.27628-2.4626-0.74286 0.71472 1.4631 2.2113 2.4728 3.9484 2.4728 2.428 0 4.3961-1.9681 4.3961-4.3961 0-1.4442-0.69473-2.7291-1.7707-3.5312z" fill="#37abc8"/>
  <path d="m827.68 279.37c0.15058 0.35582 0.23719 0.74166 0.23719 1.1521 0 1.6419-1.3333 2.9752-2.9752 2.9752-0.60508 0-1.1702-0.184-1.6401-0.49474 0.47598 0.97443 1.4727 1.6469 2.6296 1.6469 1.617-1e-5 2.9278-1.3108 2.9278-2.9278 0-0.96181-0.46268-1.8175-1.1792-2.3517z" fill="#37abc8"/>
  <path d="m613.91 300.73c0.69434 1.6407 1.0938 3.4198 1.0938 5.3125 0 7.5708-6.1479 13.719-13.719 13.719-2.79 0-5.396-0.84843-7.5625-2.2812 2.1948 4.4931 6.7907 7.5938 12.125 7.5938 7.4561-1e-5 13.5-6.0439 13.5-13.5 1e-5 -4.435-2.1334-8.3806-5.4375-10.844z" fill="#37abc8"/>
  <path d="m608.15 272.52c0.51811 1.2243 0.81615 2.5518 0.81615 3.9642 0 5.6493-4.5876 10.237-10.237 10.237-2.0819 0-4.0265-0.63309-5.6431-1.7023 1.6378 3.3527 5.0672 5.6664 9.0476 5.6664 5.5637 0 10.074-4.5099 10.074-10.074 1e-5 -3.3093-1.592-6.2536-4.0574-8.0916z" fill="#37abc8"/>
  <path d="m608.27 247.53c0.43267 1.0224 0.68155 2.131 0.68156 3.3104 0 4.7177-3.831 8.5487-8.5487 8.5487-1.7386 0-3.3625-0.52869-4.7125-1.4215 1.3677 2.7998 4.2315 4.732 7.5556 4.732 4.6462 0 8.4124-3.7662 8.4124-8.4124 1e-5 -2.7636-1.3294-5.2223-3.3883-6.7572z" fill="#37abc8"/>
  <path d="m614.64 223.11c0.40597 0.95928 0.63949 1.9995 0.63949 3.1061 0 4.4265-3.5946 8.0211-8.0211 8.0211-1.6313 0-3.155-0.49607-4.4217-1.3338 1.2832 2.627 3.9704 4.4399 7.0893 4.4399 4.3595-1e-5 7.8932-3.5338 7.8932-7.8932 1e-5 -2.593-1.2474-4.9-3.1792-6.3402z" fill="#37abc8"/>
  <path d="m627.36 202.57c0.32052 0.75738 0.5049 1.5787 0.5049 2.4524 0 3.4949-2.838 6.3329-6.3329 6.3329-1.288 0-2.491-0.39166-3.491-1.0531 1.0132 2.0741 3.1348 3.5055 5.5972 3.5055 3.442-1e-5 6.232-2.79 6.232-6.232 1e-5 -2.0473-0.98485-3.8687-2.5101-5.0058z" fill="#37abc8"/>
  <path d="m647.01 186.99c0.32052 0.75738 0.5049 1.5787 0.5049 2.4524 0 3.4949-2.838 6.3329-6.3329 6.3329-1.288 0-2.491-0.39166-3.491-1.0531 1.0132 2.0741 3.1348 3.5055 5.5972 3.5055 3.442-1e-5 6.232-2.79 6.232-6.232 1e-5 -2.0473-0.98485-3.8687-2.5101-5.0058z" fill="#37abc8"/>
  <path d="m666.66 178.48c0.22441 0.53025 0.35349 1.1052 0.35349 1.7169 0 2.4468-1.9869 4.4337-4.4337 4.4337-0.9017 0-1.7439-0.2742-2.4441-0.73727 0.70934 1.4521 2.1947 2.4542 3.9187 2.4542 2.4097-1e-5 4.363-1.9533 4.363-4.363 0-1.4333-0.6895-2.7085-1.7573-3.5046z" fill="#37abc8"/>
  <path d="m687.42 174.78c0.2244 0.53025 0.35348 1.1052 0.35348 1.7169 0 2.4468-1.9869 4.4337-4.4337 4.4337-0.9017 0-1.7439-0.2742-2.4441-0.73727 0.70932 1.4521 2.1947 2.4542 3.9186 2.4542 2.4097-1e-5 4.363-1.9533 4.363-4.363 0-1.4333-0.68951-2.7085-1.7573-3.5046z" fill="#37abc8"/>
  <path d="m760.77 181.99c0.19503 0.46085 0.30722 0.96058 0.30722 1.4922 0 2.1265-1.7269 3.8534-3.8534 3.8534-0.78368 0-1.5157-0.23831-2.1242-0.64077 0.61649 1.262 1.9074 2.133 3.4058 2.133 2.0943 0 3.792-1.6976 3.792-3.792 1e-5 -1.2457-0.59925-2.354-1.5273-3.0459z" fill="#37abc8"/>
  <path d="m1031.9 202.57c0.3205 0.75738 0.5049 1.5787 0.5049 2.4524 0 3.4949-2.8381 6.3329-6.333 6.3329-1.2879 0-2.4909-0.39166-3.491-1.0531 1.0131 2.0741 3.1347 3.5055 5.5972 3.5055 3.4419-1e-5 6.232-2.79 6.232-6.232 0-2.0473-0.9849-3.8687-2.5101-5.0058z" fill="#37abc8"/>
  <path d="m895.62 181.99c0.19503 0.46085 0.30721 0.96058 0.30723 1.4922 0 2.1265-1.7269 3.8534-3.8534 3.8534-0.78368 0-1.5157-0.23831-2.1242-0.64077 0.61649 1.262 1.9074 2.133 3.4058 2.133 2.0943 0 3.792-1.6976 3.792-3.792 0-1.2457-0.59926-2.354-1.5273-3.0459z" fill="#37abc8"/>
  <path transform="matrix(-1.329, 0, 0, 1.329, 1350.400024, 25.347)" d="m263.89 125.39a6.6949 6.6949 0 1 1 -13.39 0 6.6949 6.6949 0 1 1 13.39 0z" fill="#fff" stroke="#000" stroke-miterlimit="3" stroke-width="1.5048"/>
  <path d="m1012.3 186.99c0.3205 0.75738 0.5049 1.5787 0.5049 2.4524 0 3.4949-2.8381 6.3329-6.333 6.3329-1.2879 0-2.4909-0.39166-3.491-1.0531 1.0131 2.0741 3.1347 3.5055 5.5972 3.5055 3.4419-1e-5 6.232-2.79 6.232-6.232 0-2.0473-0.9849-3.8687-2.5101-5.0058z" fill="#37abc8"/>
  <path transform="matrix(-1.329, 0, 0, 1.329, 1329.599976, 15.336)" d="m262.36 125.39a5.1606 5.1606 0 1 1 -10.321 0 5.1606 5.1606 0 1 1 10.321 0z" fill="#fff" stroke="#000" stroke-miterlimit="3" stroke-width="1.5048"/>
  <path d="m990.41 178.48c0.22441 0.53025 0.35349 1.1052 0.35349 1.7169 0 2.4468-1.9869 4.4337-4.4337 4.4337-0.9017 0-1.7439-0.2742-2.4441-0.73727 0.70933 1.4521 2.1947 2.4542 3.9187 2.4542 2.4097-1e-5 4.363-1.9533 4.363-4.363 0-1.4333-0.68949-2.7085-1.7573-3.5046z" fill="#37abc8"/>
  <path transform="matrix(-1.329, 0, 0, 1.329, 1308.900024, 11.629)" d="m262.36 125.39a5.1606 5.1606 0 1 1 -10.321 0 5.1606 5.1606 0 1 1 10.321 0z" fill="#fff" stroke="#000" stroke-miterlimit="3" stroke-width="1.5048"/>
  <path d="m969.65 174.78c0.22441 0.53025 0.35349 1.1052 0.35349 1.7169 0 2.4468-1.9869 4.4337-4.4337 4.4337-0.9017 0-1.7439-0.2742-2.4441-0.73727 0.70933 1.4521 2.1947 2.4542 3.9187 2.4542 2.4097-1e-5 4.363-1.9533 4.363-4.363 0-1.4333-0.6895-2.7085-1.7573-3.5046z" fill="#37abc8"/>
  <g transform="matrix(0.91203, 0, 0, 0.91203, 177.940002, 23.799999)">
    <path transform="matrix(1.0604 0 0 1.0604 384.92 213.46)" d="m265.7 125.39a8.5081 8.5081 0 1 1 -17.016 0 8.5081 8.5081 0 1 1 17.016 0z" fill="#fff" stroke="#000" stroke-miterlimit="3" stroke-width="2.068"/>
    <path d="m661.68 341c0.34733 0.82073 0.54713 1.7107 0.54713 2.6575 0 3.7872-3.0754 6.8626-6.8626 6.8626-1.3957 0-2.6993-0.42442-3.783-1.1412 1.0979 2.2476 3.397 3.7987 6.0654 3.7987 3.7298-1e-5 6.7532-3.0234 6.7532-6.7532 0-2.2185-1.0672-4.1923-2.72-5.4245z" fill="#37abc8"/>
  </g>
  <g transform="matrix(0.91203, 0, 0, 0.91203, 274.329987, 23.799999)">
    <path transform="matrix(1.0604 0 0 1.0604 384.92 213.46)" d="m265.7 125.39a8.5081 8.5081 0 1 1 -17.016 0 8.5081 8.5081 0 1 1 17.016 0z" fill="#fff" stroke="#000" stroke-miterlimit="3" stroke-width="2.068"/>
    <path d="m661.68 341c0.34733 0.82073 0.54713 1.7107 0.54713 2.6575 0 3.7872-3.0754 6.8626-6.8626 6.8626-1.3957 0-2.6993-0.42442-3.783-1.1412 1.0979 2.2476 3.397 3.7987 6.0654 3.7987 3.7298-1e-5 6.7532-3.0234 6.7532-6.7532 0-2.2185-1.0672-4.1923-2.72-5.4245z" fill="#37abc8"/>
  </g>
  <g transform="matrix(0.91203, 0, 0, 0.91203, 95.800003, 39.669998)">
    <path transform="matrix(1.0604 0 0 1.0604 384.92 213.46)" d="m265.7 125.39a8.5081 8.5081 0 1 1 -17.016 0 8.5081 8.5081 0 1 1 17.016 0z" fill="#fff" stroke="#000" stroke-miterlimit="3" stroke-width="2.068"/>
    <path d="m661.68 341c0.34733 0.82073 0.54713 1.7107 0.54713 2.6575 0 3.7872-3.0754 6.8626-6.8626 6.8626-1.3957 0-2.6993-0.42442-3.783-1.1412 1.0979 2.2476 3.397 3.7987 6.0654 3.7987 3.7298-1e-5 6.7532-3.0234 6.7532-6.7532 0-2.2185-1.0672-4.1923-2.72-5.4245z" fill="#37abc8"/>
  </g>
  <g transform="matrix(0.91203, 0, 0, 0.91203, 356.470001, 39.669998)">
    <path transform="matrix(1.0604 0 0 1.0604 384.92 213.46)" d="m265.7 125.39a8.5081 8.5081 0 1 1 -17.016 0 8.5081 8.5081 0 1 1 17.016 0z" fill="#fff" stroke="#000" stroke-miterlimit="3" stroke-width="2.068"/>
    <path d="m661.68 341c0.34733 0.82073 0.54713 1.7107 0.54713 2.6575 0 3.7872-3.0754 6.8626-6.8626 6.8626-1.3957 0-2.6993-0.42442-3.783-1.1412 1.0979 2.2476 3.397 3.7987 6.0654 3.7987 3.7298-1e-5 6.7532-3.0234 6.7532-6.7532 0-2.2185-1.0672-4.1923-2.72-5.4245z" fill="#37abc8"/>
  </g>
</svg>